<svg width="166" height="100" viewBox="0 0 166 100" fill="none" xmlns="http://www.w3.org/2000/svg">
<path d="M26.9587 38.5382C37.7421 38.5382 48.5256 38.5382 59.6358 38.5382C59.4813 39.1668 59.2811 39.621 58.9893 40.1928C58.9405 40.2889 58.8917 40.3849 58.8413 40.4839C58.6814 40.7978 58.5204 41.1111 58.3594 41.4244C58.2475 41.6432 58.1356 41.862 58.0238 42.0808C57.2898 43.5135 56.5381 44.9355 55.7718 46.3506C55.1932 47.421 54.6334 48.5003 54.0807 49.5847C53.4609 50.8002 52.8299 52.0081 52.1814 53.2081C51.208 55.0099 50.2627 56.8263 49.3194 58.6445C48.7292 59.7816 48.1373 60.9175 47.5344 62.0477C46.5405 63.9123 45.5655 65.7824 44.6554 67.691C44.5768 67.8545 44.4981 68.018 44.4171 68.1865C43.1732 70.6985 43.1732 70.6985 43.2417 73.4051C44.2618 75.4612 46.82 76.3624 48.8381 77.0432C52.6557 78.2571 56.6409 78.7531 60.6161 79.0698C60.83 79.0871 61.0439 79.1045 61.2642 79.1223C69.0196 79.7277 77.0455 79.7168 84.7972 79.0698C84.9863 79.054 84.9863 79.054 85.1792 79.038C96.7204 78.1579 96.7204 78.1579 106.201 72.2591C108.482 69.3856 110.046 66.0095 111.654 62.7227C111.931 62.1553 112.21 61.5884 112.489 61.0215C112.957 60.0693 113.424 59.1169 113.891 58.1641C114.484 56.9535 115.078 55.7435 115.673 54.5338C116.191 53.479 116.709 52.4239 117.227 51.3688C117.39 51.0369 117.552 50.7051 117.715 50.3732C118.895 47.971 120.062 45.5635 121.194 43.1379C121.638 42.1872 122.095 41.2436 122.56 40.3032C122.636 40.1475 122.712 39.9918 122.791 39.8314C123.336 38.7254 123.336 38.7254 123.52 38.5382C123.949 38.522 124.375 38.5166 124.805 38.5182C125.009 38.518 125.009 38.518 125.218 38.5178C125.678 38.5175 126.138 38.5184 126.598 38.5193C126.926 38.5194 127.255 38.5194 127.583 38.5193C128.478 38.5192 129.372 38.5202 130.267 38.5214C131.2 38.5224 132.134 38.5225 133.068 38.5227C134.837 38.5232 136.607 38.5246 138.376 38.5262C140.39 38.5281 142.404 38.529 144.418 38.5298C148.562 38.5316 152.706 38.5345 156.85 38.5382C156.721 39.2773 156.467 39.8903 156.138 40.5582C156.055 40.7309 156.055 40.7309 155.97 40.9071C155.85 41.1548 155.73 41.4023 155.609 41.6496C155.288 42.3095 154.97 42.9711 154.652 43.6325C154.556 43.8321 154.556 43.8321 154.458 44.0356C153.908 45.179 153.38 46.3309 152.858 47.4875C151.974 49.4417 151.052 51.3749 150.123 53.3067C149.328 54.9583 148.548 56.6141 147.793 58.2849C146.993 60.051 146.174 61.8074 145.341 63.5577C145.208 63.8364 145.076 64.1153 144.944 64.3943C142.921 68.681 140.481 72.6317 137.244 76.0797C137.113 76.2215 136.983 76.3632 136.848 76.5093C128.149 85.6862 114.454 88.203 102.468 88.4675C102.323 88.4708 102.177 88.4742 102.028 88.4776C96.6128 88.5975 91.1944 88.563 85.7786 88.5596C84.6941 88.5589 83.6096 88.5592 82.525 88.5599C75.2203 88.5645 67.9194 88.541 60.6161 88.3721C60.3341 88.3657 60.0521 88.3594 59.77 88.3531C58.2274 88.3179 56.685 88.2756 55.1427 88.2267C55.0342 88.2234 54.9257 88.22 54.8139 88.2165C22.5165 87.2075 22.5165 87.2075 11.0094 78.9938C9.85474 77.741 9.38047 76.6652 9.39469 74.9481C9.39574 74.8117 9.39679 74.6753 9.39788 74.5347C9.5468 69.3071 12.8484 64.2888 15.2929 59.8823C15.764 59.03 16.2294 58.1743 16.696 57.3193C16.9079 56.9315 17.1197 56.5437 17.3317 56.1559C17.3848 56.0587 17.4379 55.9614 17.4927 55.8612C17.8558 55.1967 18.2192 54.5323 18.5826 53.868C19.6351 51.9437 20.6849 50.0179 21.7303 48.0897C22.596 46.493 23.4636 44.8975 24.3343 43.3036C24.4287 43.1305 24.5232 42.9575 24.6205 42.7793C25.3949 41.3627 26.1771 39.9508 26.9587 38.5382Z" fill="#00875F"/>
<path d="M106.018 17.9953C110.763 22.2758 114.021 28.5892 114.533 35.0498C114.565 35.8699 114.574 36.6897 114.574 37.5104C114.574 37.6247 114.575 37.7391 114.575 37.8569C114.573 39.7281 114.454 41.5272 114.043 43.3555C114.008 43.5181 114.008 43.5181 113.972 43.6841C112.951 48.2483 110.775 52.3772 107.577 55.7355C107.342 55.9824 107.112 56.2325 106.881 56.4829C102.877 60.7649 96.6989 63.7313 90.8694 63.9803C90.1592 63.9879 89.4492 63.9945 88.7389 63.995C88.6106 63.9951 88.4822 63.9952 88.3499 63.9954C86.4678 63.9927 84.6699 63.9231 82.8366 63.4551C82.7193 63.4275 82.6021 63.3999 82.4812 63.3714C78.2138 62.3583 74.3169 60.1747 71.1143 57.15C70.8586 56.9144 70.5942 56.6884 70.3236 56.4706C66.1674 53.0519 63.723 46.9026 62.9036 41.6944C62.8734 41.5061 62.8433 41.3179 62.8123 41.124C62.4643 38.1564 62.51 34.7917 63.2303 31.8937C63.2628 31.7578 63.2952 31.622 63.3287 31.482C64.3111 27.451 66.0444 23.7102 68.7854 20.598C68.8553 20.5172 68.9252 20.4363 68.9973 20.3531C73.5614 15.0795 79.7993 11.8466 86.7067 11.319C93.8706 10.8763 100.602 13.2354 106.018 17.9953Z" fill="#00875F"/>
</svg>
